<mxfile host="65bd71144e" modified="2021-03-09T17:27:36.562Z" agent="5.0 (Windows NT 10.0; Win64; x64) AppleWebKit/537.36 (KHTML, like Gecko) Code/1.54.1 Chrome/87.0.4280.141 Electron/11.3.0 Safari/537.36" etag="bz4AN4Ver4FRQqXyYgjm" version="14.2.4" type="embed">
    <diagram id="d2q6l7Myvb1wB3JtTSXP" name="Page-1">
        <mxGraphModel dx="469" dy="631" grid="1" gridSize="10" guides="1" tooltips="1" connect="1" arrows="1" fold="1" page="1" pageScale="1" pageWidth="827" pageHeight="1169" math="0" shadow="0">
            <root>
                <mxCell id="0"/>
                <mxCell id="1" parent="0"/>
                <mxCell id="2" value="internal" style="rounded=0;whiteSpace=wrap;html=1;fillColor=#647687;strokeColor=#314354;fontColor=#ffffff;" parent="1" vertex="1">
                    <mxGeometry x="300" y="420" width="1090" height="60" as="geometry"/>
                </mxCell>
                <mxCell id="3" value="adapter" style="rounded=0;whiteSpace=wrap;html=1;fillColor=#f0a30a;strokeColor=#BD7000;fontColor=#ffffff;" parent="1" vertex="1">
                    <mxGeometry x="1040" y="360" width="330" height="60" as="geometry"/>
                </mxCell>
                <mxCell id="4" value="app" style="rounded=0;whiteSpace=wrap;html=1;fillColor=#f0a30a;strokeColor=#BD7000;fontColor=#ffffff;" parent="1" vertex="1">
                    <mxGeometry x="664" y="360" width="276" height="60" as="geometry"/>
                </mxCell>
                <mxCell id="5" value="transport" style="rounded=0;whiteSpace=wrap;html=1;fillColor=#f0a30a;strokeColor=#BD7000;fontColor=#ffffff;" parent="1" vertex="1">
                    <mxGeometry x="310" y="360" width="150" height="60" as="geometry"/>
                </mxCell>
                <mxCell id="6" value="http" style="rounded=0;whiteSpace=wrap;html=1;fillColor=#647687;strokeColor=#314354;fontColor=#ffffff;" parent="1" vertex="1">
                    <mxGeometry x="1180" y="300" width="180" height="60" as="geometry"/>
                </mxCell>
                <mxCell id="53" style="edgeStyle=orthogonalEdgeStyle;rounded=0;orthogonalLoop=1;jettySize=auto;html=1;exitX=0.014;exitY=0.85;exitDx=0;exitDy=0;exitPerimeter=0;" edge="1" parent="1" source="7">
                    <mxGeometry relative="1" as="geometry">
                        <mxPoint x="940" y="390" as="targetPoint"/>
                        <Array as="points">
                            <mxPoint x="1000" y="351"/>
                            <mxPoint x="1000" y="390"/>
                            <mxPoint x="940" y="390"/>
                        </Array>
                    </mxGeometry>
                </mxCell>
                <mxCell id="54" style="edgeStyle=orthogonalEdgeStyle;rounded=0;orthogonalLoop=1;jettySize=auto;html=1;exitX=0.01;exitY=0.688;exitDx=0;exitDy=0;entryX=0.998;entryY=0.679;entryDx=0;entryDy=0;exitPerimeter=0;entryPerimeter=0;" edge="1" parent="1" source="7" target="10">
                    <mxGeometry relative="1" as="geometry"/>
                </mxCell>
                <mxCell id="55" style="edgeStyle=orthogonalEdgeStyle;rounded=0;orthogonalLoop=1;jettySize=auto;html=1;exitX=0;exitY=0.25;exitDx=0;exitDy=0;entryX=1;entryY=0.5;entryDx=0;entryDy=0;exitPerimeter=0;" edge="1" parent="1" source="7" target="13">
                    <mxGeometry relative="1" as="geometry">
                        <Array as="points">
                            <mxPoint x="1040" y="315"/>
                            <mxPoint x="1040" y="270"/>
                        </Array>
                    </mxGeometry>
                </mxCell>
                <mxCell id="7" value="database" style="rounded=0;whiteSpace=wrap;html=1;fillColor=#647687;strokeColor=#314354;fontColor=#ffffff;" parent="1" vertex="1">
                    <mxGeometry x="1060" y="300" width="120" height="60" as="geometry"/>
                </mxCell>
                <mxCell id="57" style="edgeStyle=orthogonalEdgeStyle;rounded=0;orthogonalLoop=1;jettySize=auto;html=1;entryX=1;entryY=0.5;entryDx=0;entryDy=0;" edge="1" parent="1" source="8" target="10">
                    <mxGeometry relative="1" as="geometry">
                        <mxPoint x="1020" y="290" as="targetPoint"/>
                        <Array as="points">
                            <mxPoint x="960" y="290"/>
                            <mxPoint x="960" y="330"/>
                        </Array>
                    </mxGeometry>
                </mxCell>
                <mxCell id="8" value="incidents" style="rounded=0;whiteSpace=wrap;html=1;fillColor=#647687;strokeColor=#314354;fontColor=#ffffff;" parent="1" vertex="1">
                    <mxGeometry x="1190" y="240" width="80" height="60" as="geometry"/>
                </mxCell>
                <mxCell id="58" style="edgeStyle=orthogonalEdgeStyle;rounded=0;orthogonalLoop=1;jettySize=auto;html=1;exitX=0.25;exitY=0;exitDx=0;exitDy=0;entryX=1.001;entryY=0.334;entryDx=0;entryDy=0;entryPerimeter=0;" edge="1" parent="1" source="9" target="10">
                    <mxGeometry relative="1" as="geometry">
                        <Array as="points">
                            <mxPoint x="1290" y="220"/>
                            <mxPoint x="1095" y="220"/>
                            <mxPoint x="1095" y="280"/>
                            <mxPoint x="950" y="280"/>
                            <mxPoint x="950" y="320"/>
                        </Array>
                    </mxGeometry>
                </mxCell>
                <mxCell id="9" value="weather" style="rounded=0;whiteSpace=wrap;html=1;fillColor=#647687;strokeColor=#314354;fontColor=#ffffff;" parent="1" vertex="1">
                    <mxGeometry x="1270" y="240" width="80" height="60" as="geometry"/>
                </mxCell>
                <mxCell id="10" value="bikerental" style="rounded=0;whiteSpace=wrap;html=1;fillColor=#647687;strokeColor=#314354;fontColor=#ffffff;" parent="1" vertex="1">
                    <mxGeometry x="680" y="300" width="240" height="60" as="geometry"/>
                </mxCell>
                <mxCell id="11" value="bikes" style="rounded=0;whiteSpace=wrap;html=1;fillColor=#647687;strokeColor=#314354;fontColor=#ffffff;" parent="1" vertex="1">
                    <mxGeometry x="690" y="240" width="60" height="60" as="geometry"/>
                </mxCell>
                <mxCell id="12" value="discounts" style="rounded=0;whiteSpace=wrap;html=1;fillColor=#647687;strokeColor=#314354;fontColor=#ffffff;" parent="1" vertex="1">
                    <mxGeometry x="750" y="240" width="80" height="60" as="geometry"/>
                </mxCell>
                <mxCell id="13" value="reservation" style="rounded=0;whiteSpace=wrap;html=1;fillColor=#647687;strokeColor=#314354;fontColor=#ffffff;" parent="1" vertex="1">
                    <mxGeometry x="830" y="240" width="80" height="60" as="geometry"/>
                </mxCell>
                <mxCell id="51" style="edgeStyle=orthogonalEdgeStyle;rounded=0;orthogonalLoop=1;jettySize=auto;html=1;entryX=0;entryY=0.75;entryDx=0;entryDy=0;" edge="1" parent="1" source="14" target="4">
                    <mxGeometry relative="1" as="geometry">
                        <Array as="points">
                            <mxPoint x="530" y="330"/>
                            <mxPoint x="530" y="405"/>
                        </Array>
                    </mxGeometry>
                </mxCell>
                <mxCell id="52" style="edgeStyle=orthogonalEdgeStyle;rounded=0;orthogonalLoop=1;jettySize=auto;html=1;exitX=1;exitY=0.25;exitDx=0;exitDy=0;" edge="1" parent="1" source="14">
                    <mxGeometry relative="1" as="geometry">
                        <mxPoint x="678" y="315" as="targetPoint"/>
                        <Array as="points">
                            <mxPoint x="678" y="315"/>
                        </Array>
                    </mxGeometry>
                </mxCell>
                <mxCell id="14" value="grpc" style="rounded=0;whiteSpace=wrap;html=1;fillColor=#647687;strokeColor=#314354;fontColor=#ffffff;" parent="1" vertex="1">
                    <mxGeometry x="320" y="300" width="130" height="60" as="geometry"/>
                </mxCell>
                <mxCell id="50" style="edgeStyle=orthogonalEdgeStyle;rounded=0;orthogonalLoop=1;jettySize=auto;html=1;entryX=0;entryY=0.25;entryDx=0;entryDy=0;" edge="1" parent="1" source="15" target="4">
                    <mxGeometry relative="1" as="geometry"/>
                </mxCell>
                <mxCell id="15" value="httpgateway" style="rounded=0;whiteSpace=wrap;html=1;fillColor=#647687;strokeColor=#314354;fontColor=#ffffff;" parent="1" vertex="1">
                    <mxGeometry x="327" y="240" width="113" height="60" as="geometry"/>
                </mxCell>
                <mxCell id="62" style="edgeStyle=orthogonalEdgeStyle;rounded=0;orthogonalLoop=1;jettySize=auto;html=1;" edge="1" parent="1">
                    <mxGeometry relative="1" as="geometry">
                        <mxPoint x="1309.71" y="320" as="targetPoint"/>
                        <mxPoint x="1309.71" y="290" as="sourcePoint"/>
                        <Array as="points">
                            <mxPoint x="1309.71" y="320"/>
                            <mxPoint x="1309.71" y="320"/>
                        </Array>
                    </mxGeometry>
                </mxCell>
                <mxCell id="63" style="edgeStyle=orthogonalEdgeStyle;rounded=0;orthogonalLoop=1;jettySize=auto;html=1;" edge="1" parent="1">
                    <mxGeometry relative="1" as="geometry">
                        <mxPoint x="1229.71" y="320" as="targetPoint"/>
                        <mxPoint x="1229.71" y="290" as="sourcePoint"/>
                        <Array as="points">
                            <mxPoint x="1229.71" y="320"/>
                            <mxPoint x="1229.71" y="320"/>
                        </Array>
                    </mxGeometry>
                </mxCell>
                <mxCell id="64" style="edgeStyle=orthogonalEdgeStyle;rounded=0;orthogonalLoop=1;jettySize=auto;html=1;" edge="1" parent="1">
                    <mxGeometry relative="1" as="geometry">
                        <mxPoint x="827" y="380" as="targetPoint"/>
                        <mxPoint x="827" y="350" as="sourcePoint"/>
                        <Array as="points">
                            <mxPoint x="827" y="380"/>
                            <mxPoint x="827" y="380"/>
                        </Array>
                    </mxGeometry>
                </mxCell>
                <mxCell id="65" style="edgeStyle=orthogonalEdgeStyle;rounded=0;orthogonalLoop=1;jettySize=auto;html=1;" edge="1" parent="1">
                    <mxGeometry relative="1" as="geometry">
                        <mxPoint x="869.71" y="320" as="targetPoint"/>
                        <mxPoint x="869.71" y="290" as="sourcePoint"/>
                        <Array as="points">
                            <mxPoint x="869.71" y="320"/>
                            <mxPoint x="869.71" y="320"/>
                        </Array>
                    </mxGeometry>
                </mxCell>
                <mxCell id="66" style="edgeStyle=orthogonalEdgeStyle;rounded=0;orthogonalLoop=1;jettySize=auto;html=1;entryX=0.786;entryY=0.333;entryDx=0;entryDy=0;entryPerimeter=0;" edge="1" parent="1" target="4">
                    <mxGeometry relative="1" as="geometry">
                        <mxPoint x="880" y="320" as="targetPoint"/>
                        <mxPoint x="880" y="290" as="sourcePoint"/>
                        <Array as="points">
                            <mxPoint x="880" y="320"/>
                            <mxPoint x="881" y="320"/>
                        </Array>
                    </mxGeometry>
                </mxCell>
                <mxCell id="67" style="edgeStyle=orthogonalEdgeStyle;rounded=0;orthogonalLoop=1;jettySize=auto;html=1;" edge="1" parent="1">
                    <mxGeometry relative="1" as="geometry">
                        <mxPoint x="770.0000000000002" y="320" as="targetPoint"/>
                        <mxPoint x="770.0000000000002" y="290" as="sourcePoint"/>
                        <Array as="points">
                            <mxPoint x="770" y="320"/>
                            <mxPoint x="770" y="320"/>
                        </Array>
                    </mxGeometry>
                </mxCell>
                <mxCell id="68" style="edgeStyle=orthogonalEdgeStyle;rounded=0;orthogonalLoop=1;jettySize=auto;html=1;entryX=0.786;entryY=0.333;entryDx=0;entryDy=0;entryPerimeter=0;" edge="1" parent="1">
                    <mxGeometry relative="1" as="geometry">
                        <mxPoint x="781.2259999999999" y="379.9799999999999" as="targetPoint"/>
                        <mxPoint x="780.29" y="290" as="sourcePoint"/>
                        <Array as="points">
                            <mxPoint x="780.29" y="320"/>
                            <mxPoint x="781.29" y="320"/>
                        </Array>
                    </mxGeometry>
                </mxCell>
                <mxCell id="69" style="edgeStyle=orthogonalEdgeStyle;rounded=0;orthogonalLoop=1;jettySize=auto;html=1;" edge="1" parent="1">
                    <mxGeometry relative="1" as="geometry">
                        <mxPoint x="714.3900000000002" y="320" as="targetPoint"/>
                        <mxPoint x="714.3900000000002" y="290" as="sourcePoint"/>
                        <Array as="points">
                            <mxPoint x="714.39" y="320"/>
                            <mxPoint x="714.39" y="320"/>
                        </Array>
                    </mxGeometry>
                </mxCell>
                <mxCell id="70" style="edgeStyle=orthogonalEdgeStyle;rounded=0;orthogonalLoop=1;jettySize=auto;html=1;entryX=0.786;entryY=0.333;entryDx=0;entryDy=0;entryPerimeter=0;" edge="1" parent="1">
                    <mxGeometry relative="1" as="geometry">
                        <mxPoint x="725.6159999999999" y="379.9799999999999" as="targetPoint"/>
                        <mxPoint x="724.6799999999997" y="290" as="sourcePoint"/>
                        <Array as="points">
                            <mxPoint x="724.68" y="320"/>
                            <mxPoint x="725.68" y="320"/>
                        </Array>
                    </mxGeometry>
                </mxCell>
            </root>
        </mxGraphModel>
    </diagram>
</mxfile>